<svg xmlns="http://www.w3.org/2000/svg" width="105" height="111" viewBox="11 8 105 111" fill="none">
  <path fill-rule="evenodd" d="M 52.77,11.18 A 54,54 0 0 1 75.23,11.18 L 75.74,27.86 A 38,38 0 0 1 89.43,35.76 L 104.13,27.87 A 54,54 0 0 1 115.36,47.31 L 101.17,56.10 A 38,38 0 0 1 101.17,71.90 L 115.36,80.69 A 54,54 0 0 1 104.13,100.13 L 89.43,92.24 A 38,38 0 0 1 75.74,100.14 L 75.23,116.82 A 54,54 0 0 1 52.77,116.82 L 52.26,100.14 A 38,38 0 0 1 38.57,92.24 L 23.87,100.13 A 54,54 0 0 1 12.64,80.69 L 26.83,71.90 A 38,38 0 0 1 26.83,56.10 L 12.64,47.31 A 54,54 0 0 1 23.87,27.87 L 38.57,35.76 A 38,38 0 0 1 52.26,27.86 Z M 86.00,64.00 A 22,22 0 1 0 42.00,64.00 A 22,22 0 1 0 86.00,64.00 Z" fill="white"/>
</svg>